HIERARCHY
ROOT RootJoint
{
    OFFSET   0.000000   0.000000   0.000000
    CHANNELS 6 Xposition Yposition Zposition Xrotation Yrotation Zrotation
    JOINT pelvis_lowerback
    {
        OFFSET   0.000000   0.093605   0.000000
        CHANNELS 3 Xrotation Yrotation Zrotation
        JOINT lowerback_torso
        {
            OFFSET   0.000000   0.100000   0.000000
            CHANNELS 3 Xrotation Yrotation Zrotation
            JOINT torso_head
            {
                OFFSET   0.000000   0.282350   0.000000
                CHANNELS 3 Xrotation Yrotation Zrotation
                End Site
                {
                    OFFSET   0.000000   0.192650   0.000000
                }
            }
            JOINT rTorso_Clavicle
            {
                OFFSET  -0.001000   0.157500   0.000000
                CHANNELS 3 Xrotation Yrotation Zrotation
                JOINT rShoulder
                {
                    OFFSET  -0.117647   0.000000   0.000000
                    CHANNELS 3 Xrotation Yrotation Zrotation
                    JOINT rElbow
                    {
                        OFFSET  -0.245000   0.000000   0.000000
                        CHANNELS 3 Xrotation Yrotation Zrotation
                        JOINT rWrist
                        {
                            OFFSET  -0.240000   0.000000   0.000000
                            CHANNELS 3 Xrotation Yrotation Zrotation
                            End Site
                            {
                                OFFSET  -0.116353  -0.002500   0.000000
                            }
                        }
                    }
                }
            }
            JOINT lTorso_Clavicle
            {
                OFFSET   0.001000   0.157500   0.000000
                CHANNELS 3 Xrotation Yrotation Zrotation
                JOINT lShoulder
                {
                    OFFSET   0.117647   0.000000   0.000000
                    CHANNELS 3 Xrotation Yrotation Zrotation
                    JOINT lElbow
                    {
                        OFFSET   0.245000   0.000000   0.000000
                        CHANNELS 3 Xrotation Yrotation Zrotation
                        JOINT lWrist
                        {
                            OFFSET   0.240000   0.000000   0.000000
                            CHANNELS 3 Xrotation Yrotation Zrotation
                            End Site
                            {
                                OFFSET   0.116353  -0.002500   0.000000
                            }
                        }
                    }
                }
            }
        }
    }
    JOINT rHip
    {
        OFFSET  -0.100000  -0.051395   0.000000
        CHANNELS 3 Xrotation Yrotation Zrotation
        JOINT rKnee
        {
            OFFSET   0.000000  -0.410000   0.000000
            CHANNELS 3 Xrotation Yrotation Zrotation
            JOINT rAnkle
            {
                OFFSET   0.000000  -0.390000   0.000000
                CHANNELS 3 Xrotation Yrotation Zrotation
                JOINT rToeJoint
                {
                    OFFSET   0.000000  -0.050000   0.130000
                    CHANNELS 3 Xrotation Yrotation Zrotation
                    End Site
                    {
                        OFFSET  -0.010000   0.002000   0.060000
                    }
                }
            }
        }
    }
    JOINT lHip
    {
        OFFSET   0.100000  -0.051395   0.000000
        CHANNELS 3 Xrotation Yrotation Zrotation
        JOINT lKnee
        {
            OFFSET   0.000000  -0.410000   0.000000
            CHANNELS 3 Xrotation Yrotation Zrotation
            JOINT lAnkle
            {
                OFFSET   0.000000  -0.390000   0.000000
                CHANNELS 3 Xrotation Yrotation Zrotation
                JOINT lToeJoint
                {
                    OFFSET   0.000000  -0.050000   0.130000
                    CHANNELS 3 Xrotation Yrotation Zrotation
                    End Site
                    {
                        OFFSET   0.010000   0.002000   0.060000
                    }
                }
            }
        }
    }
}
MOTION
Frames: 8
Frame Time:   0.008333
 -2.309589   0.841725   3.934783  -9.332013   6.176196  -2.677846  10.819737  -3.166530  -0.727466   6.515543  -5.683529   5.136329   4.675379  -8.841728   4.245607  -5.240991   0.871160   6.054166 -32.875459  -8.090638  28.087688   0.076537  88.499914  -0.074121  -0.113300   5.406564   1.470032  -0.415552  -5.881004  -2.049136 -11.156434 -35.554766 -52.672369 -179.998122 -73.473417 -179.998115   2.924475  -9.829329  -6.953626 -21.553115 -20.692449 -20.970442  43.374256  -0.000007  -0.000474  -8.243670  -4.442577   7.380465  -5.888452  -0.000141   0.000189  -9.520956   5.897984  15.488790  49.687419   0.000309  -0.000601 -32.247263   4.116667   3.357962   2.039831   0.000000   0.000001
 -2.308705   0.841749   3.934522  -9.305807   6.080346  -2.735510  10.797814  -3.157911  -0.706600   6.540630  -5.676842   5.123622   4.751444  -8.853853   4.255255  -5.247033   0.904034   6.007941 -32.985579  -8.124300  27.902421   0.062054  87.987954  -0.058953  -0.110183   5.481415   1.427177  -0.409715  -5.881489  -2.036618 -11.159191 -35.557176 -52.648173 -179.998021 -73.692855 -179.997965   2.928165  -9.848717  -6.931391 -21.606157 -20.653458 -20.954726  43.321452  -0.000010  -0.000346  -8.065381  -4.414328   7.401045  -5.943282  -0.000118   0.000175  -9.559969   5.930611  15.465718  49.742825   0.000258  -0.000531 -32.293171   4.191786   3.431531   2.040786   0.000000   0.000001
 -2.307838   0.841852   3.934279  -9.270771   5.988386  -2.791620  10.770835  -3.151515  -0.689460   6.562003  -5.671925   5.108817   4.820543  -8.865163   4.263090  -5.249453   0.926203   5.957251 -33.087520  -8.165165  27.719752   0.052716  87.489893  -0.049049  -0.103792   5.447897   1.377412  -0.399088  -5.875834  -2.022682 -11.153822 -35.553674 -52.620525 -179.997990 -73.906232 -179.997889   2.936900  -9.821466  -6.909345 -21.651549 -20.618038 -20.932764  43.241065  -0.000016  -0.000231  -7.874957  -4.387398   7.413282  -6.013323  -0.000107   0.000168  -9.595320   5.963079  15.438802  49.770235   0.000211  -0.000449 -32.323632   4.266359   3.504299   2.041411   0.000000   0.000001
 -2.306995   0.841989   3.934052  -9.230991   5.900461  -2.844369  10.743362  -3.147875  -0.677591   6.579847  -5.670105   5.091892   4.884523  -8.875673   4.269856  -5.250866   0.940038   5.905407 -33.183335  -8.206826  27.544455   0.045879  87.021802  -0.041819  -0.096651   5.380305   1.320955  -0.387891  -5.866210  -2.006048 -11.145832 -35.547471 -52.591480 -179.998012 -74.106652 -179.997876   2.947075  -9.779074  -6.885027 -21.693753 -20.587848 -20.910236  43.147363  -0.000020  -0.000134  -7.685871  -4.365240   7.420838  -6.085121  -0.000099   0.000163  -9.629786   5.996355  15.409644  49.783632   0.000172  -0.000371 -32.345757   4.337286   3.573466   2.041429   0.000000   0.000000
 -2.306176   0.842136   3.933840  -9.189301   5.816333  -2.894181  10.716850  -3.146643  -0.670308   6.595163  -5.670956   5.073147   4.944277  -8.885481   4.275797  -5.252257   0.948719   5.853751 -33.273799  -8.247136  27.377732   0.040406  86.584338  -0.036111  -0.089604   5.306131   1.259899  -0.377593  -5.855083  -1.988084 -11.137520 -35.540231 -52.562502 -179.998071 -74.293905 -179.997909   2.957341  -9.733613  -6.858702 -21.733165 -20.561033 -20.888029  43.048078  -0.000024  -0.000055  -7.502796  -4.346016   7.425565  -6.156106  -0.000094   0.000159  -9.663607   6.029805  15.379943  49.790384   0.000139  -0.000302 -32.363783   4.404434   3.638482   2.040889   0.000000   0.000000
 -2.305384   0.842284   3.933647  -9.147390   5.735829  -2.941530  10.691764  -3.147333  -0.666939   6.608598  -5.673899   5.052933   5.000191  -8.894647   4.281050  -5.253896   0.954243   5.803217 -33.359191  -8.285291  27.220070   0.035791  86.176117  -0.031396  -0.082888   5.233492   1.196369  -0.368448  -5.843838  -1.969951 -11.129714 -35.532844 -52.534527 -179.998158 -74.468641 -179.997976   2.967267  -9.688890  -6.831340 -21.769892 -20.536713 -20.866451  42.947660  -0.000028   0.000007  -7.327707  -4.328833   7.428527  -6.225383  -0.000090   0.000154  -9.696504   6.062885  15.350742  49.794323   0.000112  -0.000245 -32.380086   4.468035   3.699279   2.039874   0.000000   0.000000
 -2.304618   0.842426   3.933474  -9.106199   5.658891  -2.986764  10.668178  -3.149496  -0.666915   6.620535  -5.678419   5.031594   5.052495  -8.903223   4.285700  -5.255797   0.957787   5.754472 -33.439661  -8.321051  27.071584   0.031784  85.795374  -0.027397  -0.076563   5.164708   1.131990  -0.360340  -5.833138  -1.952373 -11.122645 -35.525754 -52.508054 -179.998265 -74.631646 -179.998067   2.976718  -9.646100  -6.803840 -21.804011 -20.514435 -20.845641  42.848685  -0.000030   0.000053  -7.161412  -4.313211   7.430332  -6.292571  -0.000087   0.000149  -9.728194   6.095219  15.322634  49.797430   0.000090  -0.000198 -32.395980   4.528290   3.756004   2.038474  -0.000000   0.000000
 -2.303859   0.842676   3.933351  -9.082569   5.577879  -3.037994  10.638123  -3.145604  -0.663821   6.657798  -5.672177   4.997507   5.119224  -8.924762   4.308020  -5.239694   0.976753   5.716638 -33.490960  -8.372336  26.884176   0.027159  85.259566  -0.022249  -0.086167   5.222354   1.053511  -0.346007  -5.819266  -1.946850 -11.103685 -35.517589 -52.453999 -179.998373 -74.847604 -179.998143   2.967452  -9.634799  -6.782253 -21.796072 -20.495687 -20.806454  42.714535  -0.000036   0.000105  -6.959450  -4.302448   7.446851  -6.394254  -0.000080   0.000164  -9.720126   6.131726  15.298483  49.763387   0.000066  -0.000132 -32.399135   4.594435   3.822292   2.039054  -0.000000   0.000000
